<svg width="100%" viewBox="0 0 200 200"><path d="M11.08572,87.31429c0,-0.22857 0.22857,-0.22857 0.22857,-0.45714c0.91429,-1.14286 2.05714,-2.28571 2.97143,-3.2l0.91429,-0.91429c0.68571,-0.68571 1.37143,-1.37143 2.28571,-2.05714c0.45714,-0.45714 0.91429,-0.68571 1.37143,-1.14286c0.68571,-0.68571 1.37143,-1.14286 2.05714,-1.82857c0.45714,-0.45714 0.91429,-0.68571 1.37143,-1.14286c0.68571,-0.45714 1.37143,-1.14286 2.05714,-1.6c0.45714,-0.45714 0.91429,-0.68571 1.6,-0.91429c0.68571,-0.45714 1.6,-0.91429 2.28571,-1.37143c0.45714,-0.22857 0.91429,-0.68571 1.6,-0.91429c0.91429,-0.45714 1.6,-0.91429 2.51429,-1.37143l1.37143,-0.68571c1.14286,-0.45714 2.05714,-0.91429 3.2,-1.37143c0.22857,-0.22857 0.45714,-0.22857 0.91429,-0.45714c1.37143,-0.45714 2.74286,-1.14286 4.11429,-1.6c0.45714,-0.22857 0.91429,-0.22857 1.14286,-0.45714c0.91429,-0.22857 2.05714,-0.68571 2.97143,-0.91429c0.45714,-0.22857 1.14286,-0.22857 1.6,-0.45714l2.74286,-0.68571c0.68571,-0.22857 1.14286,-0.22857 1.82857,-0.45714c0.91429,-0.22857 1.82857,-0.22857 2.74286,-0.45714c0.68571,0 1.14286,-0.22857 1.82857,-0.22857c0.91429,0 1.82857,-0.22857 2.74286,-0.22857c0.68571,0 1.14286,0 1.82857,-0.22857h0.68571v-0.68571c0,-0.68571 0,-1.14286 0.22857,-1.82857c0,-0.91429 0.22857,-1.82857 0.22857,-2.74286c0,-0.68571 0.22857,-1.14286 0.22857,-1.82857c0.22857,-0.91429 0.22857,-1.82857 0.45714,-2.74286c0,-0.68571 0.22857,-1.14286 0.22857,-1.82857l0.68571,-2.74286c0.22857,-0.45714 0.22857,-1.14286 0.45714,-1.6c0.22857,-1.14286 0.68571,-2.05714 0.91429,-3.2c0.22857,-0.45714 0.22857,-0.68571 0.45714,-1.14286c0.45714,-1.37143 0.91429,-2.74286 1.6,-4.11429c0,-0.22857 0.22857,-0.45714 0.22857,-0.68571c0.45714,-1.14286 0.91429,-2.28571 1.6,-3.42857l0.68571,-1.37143c0.45714,-0.91429 0.91429,-1.82857 1.37143,-2.51429c0.22857,-0.45714 0.68571,-0.91429 0.91429,-1.37143c0.45714,-0.68571 0.91429,-1.6 1.37143,-2.28571c0.22857,-0.45714 0.68571,-0.91429 0.91429,-1.37143c0.45714,-0.68571 1.14286,-1.37143 1.6,-2.28571c0.45714,-0.45714 0.68571,-0.91429 1.14286,-1.37143c0.45714,-0.68571 1.14286,-1.37143 1.82857,-2.05714c0.45714,-0.45714 0.68571,-0.91429 1.14286,-1.37143c0.68571,-0.68571 1.37143,-1.6 2.05714,-2.28571l0.91429,-0.91429c1.14286,-1.14286 2.05714,-2.05714 3.2,-2.97143l0.45714,-0.45714c0.91429,-0.91429 2.05714,-1.6 2.97143,-2.51429c0.45714,-0.22857 0.91429,-0.68571 1.37143,-0.91429c0.68571,-0.45714 1.14286,-0.91429 1.82857,-1.37143c-8.68571,-4.11429 -18.05714,-6.17143 -27.65714,-6.17143c-36.11429,0.45714 -65.37143,29.71429 -65.37143,65.82857c0,9.6 2.05714,18.97143 6.17143,27.65714c0.45714,-0.68571 0.91429,-1.14286 1.37143,-1.82857c0.22857,-0.45714 0.68571,-0.91429 0.91429,-1.14286c0.91429,-1.14286 1.6,-2.28571 2.51429,-3.2zM112.80001,11.42857l0.45714,0.45714c1.14286,0.91429 2.28571,2.05714 3.2,2.97143l0.91429,0.91429c0.68571,0.68571 1.37143,1.37143 2.05714,2.28571c0.45714,0.45714 0.68571,0.91429 1.14286,1.37143c0.68571,0.68571 1.14286,1.37143 1.82857,2.05714c0.45714,0.45714 0.68571,0.91429 1.14286,1.37143c0.45714,0.68571 1.14286,1.37143 1.6,2.28571c0.22857,0.45714 0.68571,0.91429 0.91429,1.37143c0.45714,0.68571 0.91429,1.6 1.37143,2.28571c0.22857,0.45714 0.68571,0.91429 0.91429,1.37143c0.45714,0.91429 0.91429,1.6 1.37143,2.51429l0.68571,1.37143c0.45714,1.14286 1.14286,2.28571 1.6,3.42857c0,0.22857 0.22857,0.45714 0.22857,0.68571c0.45714,1.37143 1.14286,2.74286 1.6,4.11429c0.22857,0.45714 0.22857,0.68571 0.45714,1.14286c0.22857,1.14286 0.68571,2.05714 0.91429,3.2c0.22857,0.45714 0.22857,1.14286 0.45714,1.6l0.68571,2.74286c0.22857,0.45714 0.22857,1.14286 0.22857,1.82857c0.22857,0.91429 0.22857,1.82857 0.45714,2.74286c0,0.68571 0.22857,1.14286 0.22857,1.82857c0,0.91429 0.22857,1.82857 0.22857,2.74286c0,0.68571 0,1.14286 0.22857,1.82857v0.68571h0.68571c0.68571,0 1.14286,0 1.82857,0.22857c0.91429,0 1.82857,0.22857 2.74286,0.22857c0.68571,0 1.14286,0.22857 1.82857,0.22857c0.91429,0.22857 1.82857,0.22857 2.74286,0.45714c0.68571,0 1.14286,0.22857 1.82857,0.45714l2.74286,0.68571c0.45714,0.22857 1.14286,0.22857 1.6,0.45714c0.91429,0.22857 2.05714,0.68571 2.97143,0.91429c0.45714,0.22857 0.91429,0.22857 1.14286,0.45714c1.37143,0.45714 2.74286,0.91429 4.11429,1.6c0.22857,0 0.45714,0.22857 0.91429,0.45714c1.14286,0.45714 2.05714,0.91429 3.2,1.37143l1.37143,0.68571c0.91429,0.45714 1.6,0.91429 2.51429,1.37143c0.45714,0.22857 0.91429,0.68571 1.6,0.91429c0.68571,0.45714 1.6,0.91429 2.28571,1.37143c0.45714,0.22857 0.91429,0.68571 1.6,0.91429c0.68571,0.45714 1.37143,0.91429 2.05714,1.6c0.45714,0.45714 0.91429,0.68571 1.37143,1.14286c0.68571,0.45714 1.37143,1.14286 2.05714,1.82857c0.45714,0.45714 0.91429,0.68571 1.37143,1.14286c0.68571,0.68571 1.6,1.37143 2.28571,2.05714l0.91429,0.91429c1.14286,1.14286 2.05714,2.05714 2.97143,3.2c0.22857,0.22857 0.22857,0.22857 0.22857,0.45714c0.91429,0.91429 1.6,2.05714 2.51429,2.97143c0.22857,0.45714 0.68571,0.91429 0.91429,1.14286c0.45714,0.68571 0.91429,1.14286 1.37143,1.82857c4.11429,-8.68571 6.17143,-18.05714 6.17143,-27.65714c0,-36.11429 -29.25714,-65.37143 -65.37143,-65.37143c-9.37143,-0.22857 -18.74286,1.82857 -27.42857,5.94286c0.68571,0.45714 1.14286,0.91429 1.82857,1.37143c0.45714,0.22857 0.91429,0.68571 1.37143,0.91429c0.91429,0.68571 1.82857,1.6 2.74286,2.51429zM71.42858,62.62857c0.91429,0 1.82857,0.22857 2.74286,0.22857c0.68571,0 1.14286,0.22857 1.82857,0.22857c0.91429,0.22857 1.82857,0.22857 2.74286,0.45714c0.45714,0 1.14286,0.22857 1.6,0.22857l2.74286,0.68571c0.45714,0.22857 0.91429,0.22857 1.37143,0.45714c1.37143,0.45714 2.51429,0.68571 3.65714,1.14286c0.22857,0 0.22857,0 0.45714,0.22857c1.37143,0.45714 2.74286,0.91429 4.11429,1.6c0.45714,0.22857 0.91429,0.45714 1.37143,0.45714l2.74286,1.37143c0.45714,0.22857 0.91429,0.45714 1.6,0.68571l1.37143,0.68571l1.37143,-0.68571c0.45714,-0.22857 0.91429,-0.45714 1.6,-0.68571l2.74286,-1.37143c0.45714,-0.22857 0.91429,-0.45714 1.37143,-0.45714c1.37143,-0.45714 2.74286,-1.14286 4.11429,-1.6c0.22857,0 0.22857,0 0.45714,-0.22857c1.14286,-0.45714 2.51429,-0.68571 3.65714,-1.14286c0.45714,-0.22857 0.91429,-0.22857 1.37143,-0.45714l2.74286,-0.68571c0.45714,-0.22857 1.14286,-0.22857 1.6,-0.22857c0.91429,-0.22857 1.82857,-0.22857 2.74286,-0.45714c0.68571,0 1.14286,-0.22857 1.82857,-0.22857c0.91429,0 1.82857,-0.22857 2.74286,-0.22857c0.45714,0 1.14286,0 1.6,-0.22857h0.68571v-0.45714c0,-0.68571 0,-1.14286 -0.22857,-1.82857c0,-0.68571 -0.22857,-1.6 -0.22857,-2.28571c0,-0.68571 -0.22857,-1.14286 -0.22857,-1.82857c-0.22857,-0.68571 -0.22857,-1.6 -0.45714,-2.28571c0,-0.68571 -0.22857,-1.14286 -0.45714,-1.82857c-0.22857,-0.68571 -0.22857,-1.6 -0.45714,-2.28571c-0.22857,-0.68571 -0.22857,-1.14286 -0.45714,-1.82857c-0.22857,-0.68571 -0.45714,-1.37143 -0.68571,-2.28571c-0.22857,-0.45714 -0.45714,-1.14286 -0.68571,-1.6c-0.22857,-0.68571 -0.45714,-1.37143 -0.91429,-2.28571c-0.22857,-0.45714 -0.45714,-1.14286 -0.68571,-1.6c-0.22857,-0.68571 -0.68571,-1.37143 -0.91429,-2.05714c-0.22857,-0.45714 -0.45714,-1.14286 -0.68571,-1.6c-0.45714,-0.68571 -0.68571,-1.37143 -1.14286,-2.28571l-0.68571,-1.37143c-0.45714,-0.68571 -0.91429,-1.6 -1.37143,-2.28571c-0.22857,-0.45714 -0.45714,-0.68571 -0.68571,-1.14286c-0.68571,-1.14286 -1.6,-2.28571 -2.28571,-3.2c-0.91429,-1.14286 -1.6,-2.05714 -2.51429,-3.2l-0.91429,-0.91429c-0.68571,-0.68571 -1.14286,-1.37143 -1.82857,-2.05714l-1.14286,-1.14286c-0.68571,-0.68571 -1.14286,-1.14286 -1.82857,-1.6c-0.45714,-0.45714 -0.91429,-0.68571 -1.37143,-1.14286c-0.68571,-0.45714 -1.14286,-1.14286 -1.82857,-1.6c-0.45714,-0.45714 -0.91429,-0.68571 -1.37143,-1.14286c-0.68571,-0.45714 -1.37143,-0.91429 -1.82857,-1.37143c-0.45714,-0.45714 -0.91429,-0.68571 -1.6,-0.91429c-0.45714,-0.22857 -0.68571,-0.45714 -1.14286,-0.68571c-0.45714,0.22857 -0.68571,0.45714 -1.14286,0.68571c-0.45714,0.22857 -1.14286,0.68571 -1.6,0.91429c-0.68571,0.45714 -1.37143,0.91429 -1.82857,1.37143c-0.45714,0.45714 -0.91429,0.68571 -1.37143,1.14286c-0.68571,0.45714 -1.14286,0.91429 -1.82857,1.6c-0.45714,0.45714 -0.91429,0.68571 -1.37143,1.14286c-0.68571,0.45714 -1.14286,1.14286 -1.82857,1.6l-1.14286,1.14286c-0.68571,0.68571 -1.37143,1.37143 -1.82857,2.05714l-0.91429,0.91429c-0.91429,1.14286 -1.82857,2.05714 -2.51429,3.2c-0.91429,1.14286 -1.6,2.28571 -2.28571,3.2c-0.22857,0.45714 -0.45714,0.68571 -0.68571,1.14286c-0.45714,0.68571 -0.91429,1.6 -1.37143,2.28571l-0.68571,1.37143c-0.45714,0.68571 -0.91429,1.37143 -1.14286,2.28571c-0.22857,0.45714 -0.45714,0.91429 -0.68571,1.6c-0.22857,0.68571 -0.68571,1.37143 -0.91429,2.05714c-0.22857,0.45714 -0.45714,1.14286 -0.68571,1.6c-0.22857,0.68571 -0.45714,1.37143 -0.91429,2.28571c-0.22857,0.45714 -0.45714,1.14286 -0.68571,1.6c-0.22857,0.68571 -0.45714,1.37143 -0.68571,2.28571c-0.22857,0.68571 -0.22857,1.14286 -0.45714,1.82857c-0.22857,0.68571 -0.45714,1.6 -0.45714,2.28571c-0.22857,0.68571 -0.22857,1.14286 -0.45714,1.82857c-0.0464,0.1392 -0.08343,0.288 -0.11474,0.44229l-0.00251,0.01257c-0.18354,0.69646 -0.33989,1.26377 -0.33989,1.83086c0,0.68571 -0.22857,1.14286 -0.22857,1.82857c0,0.08229 -0.0032,0.168 -0.00914,0.25623c-0.19726,0.60846 -0.21714,1.21897 -0.2192,1.99177l-0.00023,0.03771c0,0.68571 0,1.14286 -0.22857,1.82857v0.45714h0.68571c0.45714,0.22857 1.14286,0.22857 1.6,0.22857zM107.77144,16c-0.45714,-0.45714 -1.14286,-0.91429 -1.82857,-1.6c0.68571,0.45714 1.14286,0.91429 1.82857,1.6zM117.37144,26.28571c-0.68571,-1.14286 -1.6,-2.28571 -2.51429,-3.2c0.91429,1.14286 1.82857,2.05714 2.51429,3.2zM117.60001,26.28571c0.2192,0.27406 0.42537,0.54834 0.62171,0.8192c-0.21851,-0.28777 -0.42926,-0.56251 -0.62171,-0.8192zM118.22172,27.10491c0.55954,0.73691 1.17074,1.55886 1.664,2.3808c-0.52114,-0.69509 -1.04251,-1.52206 -1.664,-2.3808zM122.85715,34.28571c0.45714,0.68571 0.91429,1.37143 1.14286,2.28571c-0.45714,-0.68571 -0.68571,-1.37143 -1.14286,-2.28571zM74.17144,40.22857c0.22857,-0.68571 0.68571,-1.37143 0.91429,-2.05714c-0.22857,0.68571 -0.45714,1.37143 -0.91429,2.05714zM124.68572,38.17143c0.22857,0.68571 0.68571,1.37143 0.91429,2.05714c-0.22857,-0.68571 -0.45714,-1.37143 -0.91429,-2.05714zM126.28572,41.82857c0.22857,0.68571 0.45714,1.37143 0.91429,2.28571c-0.22857,-0.68571 -0.45714,-1.37143 -0.91429,-2.28571zM127.88572,45.71429c0.22857,0.68571 0.45714,1.37143 0.68571,2.28571c-0.22857,-0.68571 -0.45714,-1.37143 -0.68571,-2.28571zM70.5143,51.88571c0.22857,-0.68571 0.22857,-1.6 0.45714,-2.28571c0,0.91429 -0.22857,1.6 -0.45714,2.28571zM129.02858,49.82857c0.22857,0.68571 0.45714,1.6 0.45714,2.28571c-0.22857,-0.91429 -0.45714,-1.6 -0.45714,-2.28571zM129.94287,53.71429c0.22857,0.68571 0.22857,1.6 0.45714,2.28571c-0.22857,-0.68571 -0.45714,-1.37143 -0.45714,-2.28571zM130.40001,57.82857c0,0.68571 0.22857,1.6 0.22857,2.28571c0,-0.68571 0,-1.37143 -0.22857,-2.28571zM62.5143,128.91428c-0.13714,0.27429 -0.192,0.63086 -0.21394,0.77349c-0.00617,0.04 -0.0096,0.06309 -0.01189,0.06309c-0.00274,-0.00023 -0.00274,-0.0448 -0.00274,-0.15086v0.68571h-0.45714c-0.68571,-0.22857 -1.14286,-0.22857 -1.82857,-0.22857c-0.68571,0 -1.6,-0.22857 -2.28571,-0.22857c-0.68571,0 -1.14286,-0.22857 -1.82857,-0.22857c-0.68571,-0.22857 -1.6,-0.22857 -2.28571,-0.45714c-0.68571,-0.22857 -1.14286,-0.22857 -1.82857,-0.45714c-0.68571,0 -1.6,-0.22857 -2.28571,-0.45714c-0.68571,-0.22857 -1.14286,-0.22857 -1.82857,-0.45714c-0.91429,-0.22857 -1.6,-0.45714 -2.28571,-0.68571c-0.45714,0 -1.14286,-0.22857 -1.6,-0.45714c-0.91429,-0.45714 -1.6,-0.68571 -2.28571,-0.91429c-0.45714,-0.22857 -1.14286,-0.45714 -1.6,-0.68571c-0.91429,-0.22857 -1.6,-0.45714 -2.28571,-0.91429c-0.68571,-0.22857 -1.14286,-0.45714 -1.6,-0.68571c-0.91429,-0.22857 -1.6,-0.68571 -2.28571,-1.14286l-1.37143,-0.68571c-0.68571,-0.45714 -1.6,-0.91429 -2.28571,-1.37143c-0.45714,-0.22857 -0.68571,-0.45714 -1.14286,-0.68571c-2.05714,-1.6 -4.34286,-3.2 -6.4,-5.02857l-0.91429,-0.91429c-0.68571,-0.45714 -1.37143,-1.14286 -2.05714,-1.82857l-1.14286,-1.14286c-0.68571,-0.68571 -1.37143,-1.14286 -1.82857,-1.82857c-0.45714,-0.45714 -0.68571,-0.91429 -1.14286,-1.37143c-0.68571,-0.68571 -1.14286,-1.14286 -1.6,-1.82857c-0.45714,-0.45714 -0.68571,-0.91429 -1.14286,-1.37143c-0.45714,-0.45714 -0.91429,-1.14286 -1.37143,-1.82857c-0.22857,-0.68571 -0.68571,-1.14286 -0.91429,-1.6c-0.22857,-0.45714 -0.45714,-0.68571 -0.68571,-1.14286c0.22857,-0.45714 0.45714,-0.68571 0.68571,-1.14286c0.22857,-0.68571 0.45714,-1.14286 0.91429,-1.6c0.45714,-0.45714 0.91429,-1.14286 1.37143,-1.82857c0.45714,-0.45714 0.68571,-0.91429 1.14286,-1.37143c0.45714,-0.68571 1.14286,-1.14286 1.6,-1.82857c0.45714,-0.45714 0.68571,-0.91429 1.14286,-1.37143l2.97143,-2.97143c0.68571,-0.68571 1.37143,-1.14286 2.05714,-1.82857l0.91429,-0.91429c2.05714,-1.82857 4.11429,-3.42857 6.4,-5.02857c0.45714,-0.22857 0.68571,-0.45714 1.14286,-0.68571c0.68571,-0.45714 1.37143,-0.91429 2.28571,-1.37143l1.37143,-0.68571c0.68571,-0.45714 1.6,-0.68571 2.28571,-1.14286c0.68571,-0.22857 1.14286,-0.45714 1.6,-0.68571c0.91429,-0.22857 1.6,-0.68571 2.28571,-0.91429c0.45714,-0.22857 1.14286,-0.45714 1.6,-0.68571c0.91429,-0.45714 1.6,-0.68571 2.28571,-0.91429c0.45714,0 1.14286,-0.22857 1.6,-0.45714c0.91429,-0.22857 1.6,-0.45714 2.28571,-0.68571c0.68571,-0.22857 1.14286,-0.22857 1.82857,-0.45714c0.68571,-0.22857 1.6,-0.22857 2.28571,-0.45714c0.68571,-0.22857 1.14286,-0.45714 1.82857,-0.45714c0.68571,-0.22857 1.6,-0.22857 2.28571,-0.45714c0.68571,0 1.14286,-0.22857 1.82857,-0.22857c0.68571,0 1.6,-0.22857 2.28571,-0.22857c0.68571,-0.22857 1.14286,-0.22857 1.82857,-0.22857h0.45714v0.68571c0.22857,0.45714 0.22857,1.14286 0.22857,1.6c0,0.91429 0.22857,1.82857 0.22857,2.74286c0,0.68571 0.22857,1.14286 0.22857,1.82857c0.22857,0.91429 0.22857,1.82857 0.45714,2.74286c0,0.45714 0,1.14286 0.22857,1.6l0.68571,2.74286c0.22857,0.68571 0.22857,1.14286 0.45714,1.6c0.45714,1.14286 0.68571,2.51429 1.14286,3.65714c0,0.22857 0.22857,0.45714 0.22857,0.68571c0.45714,1.37143 1.14286,2.74286 1.6,4.11429l0.68571,1.37143c0.22857,0.91429 0.68571,1.82857 1.14286,2.74286c0.22857,0.68571 0.45714,1.14286 0.68571,1.6l0.68571,1.37143l-0.68571,1.37143c-0.22857,0.68571 -0.45714,1.14286 -0.68571,1.6c-0.22857,0.91429 -0.68571,1.82857 -1.14286,2.74286l-0.68571,1.37143c-0.68571,1.37143 -1.14286,2.74286 -1.6,4.11429c0,0.22857 -0.22857,0.45714 -0.22857,0.68571c-0.45714,1.14286 -0.91429,2.51429 -1.14286,3.65714c-0.22857,0.68571 -0.22857,1.14286 -0.45714,1.6l-0.68571,2.74286c0,0.45714 -0.22857,1.14286 -0.22857,1.6c-0.22857,0.91429 -0.22857,1.82857 -0.45714,2.74286c0,0.68571 -0.22857,1.14286 -0.22857,1.82857c0,0.91429 -0.22857,1.82857 -0.22857,2.74286zM79.65715,87.77143c-0.45714,0.45714 -0.68571,0.91429 -1.14286,1.37143c-0.91429,1.14286 -1.82857,2.28571 -2.51429,3.42857l-0.68571,0.68571c-0.22857,-0.68571 -0.68571,-1.37143 -0.91429,-2.05714c0,-0.22857 -0.22857,-0.45714 -0.22857,-0.68571c-0.45714,-1.37143 -0.91429,-2.51429 -1.37143,-3.65714c0,-0.22857 -0.22857,-0.68571 -0.22857,-0.91429c-0.45714,-0.91429 -0.68571,-1.82857 -0.91429,-2.74286c0,-0.45714 -0.22857,-0.68571 -0.22857,-1.14286c-0.45714,-1.14286 -0.68571,-2.51429 -0.91429,-3.65714c-0.22857,-1.14286 -0.45714,-2.51429 -0.68571,-3.65714c-0.22857,-0.45714 -0.22857,-0.68571 -0.22857,-1.14286c0,-0.91429 -0.22857,-2.05714 -0.22857,-2.97143v-1.37143h1.37143c1.14286,0 2.05714,0 2.97143,0.22857c0.45714,0.22857 0.68571,0.22857 1.14286,0.22857c1.14286,0.22857 2.51429,0.45714 3.65714,0.68571h0.22857c1.14286,0.22857 2.51429,0.68571 3.65714,0.91429c0.45714,0 0.68571,0.22857 1.14286,0.22857c0.91429,0.22857 1.82857,0.68571 2.74286,0.91429c0.22857,0 0.68571,0.22857 0.91429,0.22857c1.37143,0.45714 2.51429,0.91429 3.65714,1.37143c0,0 0.22857,0.22857 0.45714,0.22857c0.68571,0.22857 1.37143,0.68571 2.05714,0.91429c-0.45714,0.22857 -0.68571,0.45714 -0.91429,0.68571l-3.42857,2.74286c-0.45714,0.45714 -0.91429,0.68571 -1.37143,1.14286c-1.37143,1.37143 -2.74286,2.51429 -4.11429,3.88571c-1.37143,1.37143 -2.74286,2.74286 -3.88571,4.11429zM129.47978,69.48571h1.60594v1.37143c0,0.91429 0,2.05714 -0.22857,2.97143c-0.22857,0.45714 -0.22857,0.68571 -0.22857,1.14286c-0.22857,1.14286 -0.45714,2.51429 -0.68571,3.65714c-0.22857,1.14286 -0.68571,2.51429 -0.91429,3.65714c0,0.45714 -0.22857,0.68571 -0.22857,1.14286c-0.22857,0.91429 -0.68571,1.82857 -0.91429,2.74286c0,0.22857 -0.22857,0.68571 -0.22857,0.91429c-0.45714,1.37143 -0.91429,2.51429 -1.37143,3.65714c0,0.22857 -0.22857,0.45714 -0.22857,0.68571c-0.22857,0.68571 -0.68571,1.37143 -0.91429,2.05714l-0.16823,-0.16823c-0.02149,0.056 -0.0416,0.11223 -0.06034,0.16823c0.01897,-0.05714 0.03817,-0.11429 0.05714,-0.17143l-0.51429,-0.51429l-2.74286,-3.42857c-0.45714,-0.45714 -0.68571,-0.91429 -1.14286,-1.37143c-1.37143,-1.37143 -2.51429,-2.74286 -3.88571,-4.11429c-1.37143,-1.37143 -2.74286,-2.74286 -4.11429,-3.88571c-0.45714,-0.45714 -0.91429,-0.68571 -1.37143,-1.14286l-3.42857,-2.74286c-0.45714,-0.22857 -0.68571,-0.45714 -0.91429,-0.68571c0.68571,-0.22857 1.37143,-0.68571 2.05714,-0.91429c0,0 0.22857,-0.22857 0.45714,-0.22857c1.37143,-0.45714 2.51429,-0.91429 3.65714,-1.37143c0.22857,0 0.68571,-0.22857 0.91429,-0.22857c0.91429,-0.45714 1.82857,-0.68571 2.74286,-0.91429c0.45714,0 0.68571,-0.22857 1.14286,-0.22857c1.14286,-0.45714 2.51429,-0.68571 3.65714,-0.91429h0.22857c1.13371,-0.22674 2.49257,-0.45349 3.62994,-0.68023l0.0272,-0.00549c0.45714,-0.22857 0.68571,-0.22857 1.14286,-0.22857c1.14034,0 2.05303,-0.22766 2.96549,-0.22857zM129.47978,69.48571c-0.91337,0.00091 -2.05326,0.22857 -2.96549,0.22857c0.91269,-0.22811 1.82537,-0.22857 2.96549,-0.22857zM140.00001,69.48571c0.68571,0 1.6,0.22857 2.28571,0.22857c-0.68571,0 -1.37143,0 -2.28571,-0.22857zM144.1143,70.17143c0.68571,0.22857 1.6,0.22857 2.28571,0.45714c-0.68571,-0.22857 -1.37143,-0.45714 -2.28571,-0.45714zM137.25715,74.51429c0,-0.91429 0.22857,-1.82857 0.22857,-2.74286c0.11429,-0.34286 0.17143,-0.62857 0.2,-0.77143c0.0128,-0.06354 0.01966,-0.09874 0.02377,-0.09829c0.0048,0.00046 0.0048,0.05691 0.0048,0.184v-0.68571h0.45714c0.68571,0.22857 1.14286,0.22857 1.82857,0.22857c0.68571,0 1.6,0.22857 2.28571,0.22857c0.68571,0 1.14286,0.22857 1.82857,0.22857c0.68571,0.22857 1.6,0.22857 2.28571,0.45714c0.68571,0.22857 1.14286,0.22857 1.82857,0.45714c0.68571,0 1.6,0.22857 2.28571,0.45714c0.68571,0.22857 1.14286,0.22857 1.82857,0.45714c0.91429,0.22857 1.6,0.45714 2.28571,0.68571c0.45714,0 1.14286,0.22857 1.6,0.45714c0.91429,0.45714 1.6,0.68571 2.28571,0.91429c0.45714,0.22857 1.14286,0.45714 1.6,0.68571c0.91429,0.22857 1.6,0.45714 2.28571,0.91429c0.68571,0.22857 1.14286,0.45714 1.6,0.68571c0.91429,0.22857 1.6,0.68571 2.28571,1.14286l1.37143,0.68571c0.68571,0.45714 1.6,0.91429 2.28571,1.37143c0.45714,0.22857 0.68571,0.45714 1.14286,0.68571c2.05714,1.6 4.34286,3.2 6.4,5.02857l0.91429,0.91429c0.68571,0.45714 1.37143,1.14286 2.05714,1.82857l1.14286,1.14286c0.68571,0.68571 1.37143,1.14286 1.82857,1.82857c0.45714,0.45714 0.68571,0.91429 1.14286,1.37143c0.68571,0.68571 1.14286,1.14286 1.6,1.82857c0.45714,0.45714 0.68571,0.91429 1.14286,1.37143c0.45714,0.45714 0.91429,1.14286 1.37143,1.82857c0.22857,0.68571 0.68571,1.14286 0.91429,1.6c0.11634,0.23291 0.23291,0.4064 0.34926,0.58103c0.03589,-0.0464 0.072,-0.088 0.10789,-0.12389c-0.02811,0.05623 -0.05623,0.10903 -0.08434,0.15931c0.10423,0.1568 0.20869,0.31771 0.31291,0.5264c-0.22857,0.45714 -0.45714,0.68571 -0.68571,1.14286c-0.22857,0.68571 -0.45714,1.14286 -0.91429,1.6c-0.45714,0.45714 -0.91429,1.14286 -1.37143,1.82857c-0.45714,0.45714 -0.68571,0.91429 -1.14286,1.37143c-0.45714,0.68571 -1.14286,1.14286 -1.6,1.82857c-0.45714,0.45714 -0.68571,0.91429 -1.14286,1.37143l-1.82857,1.82857l-1.14286,1.14286c-0.68571,0.45714 -1.37143,1.14286 -2.05714,1.82857l-0.91429,0.91429c-2.05714,1.82857 -4.11429,3.42857 -6.4,5.02857c-0.45714,0.22857 -0.68571,0.45714 -1.14286,0.68571c-0.68571,0.45714 -1.37143,0.91429 -2.28571,1.37143l-1.37143,0.68571c-0.68571,0.45714 -1.6,0.68571 -2.28571,1.14286c-0.68571,0.22857 -1.14286,0.45714 -1.6,0.68571c-0.91429,0.22857 -1.6,0.68571 -2.28571,0.91429c-0.45714,0.22857 -1.14286,0.45714 -1.6,0.68571c-0.91429,0.45714 -1.6,0.68571 -2.28571,0.91429c-0.45714,0 -1.14286,0.22857 -1.6,0.45714c-0.68571,0.22857 -1.6,0.45714 -2.28571,0.68571c-0.68571,0.22857 -1.14286,0.22857 -1.82857,0.45714c-0.68571,0.22857 -1.6,0.22857 -2.28571,0.45714c-0.68571,0.22857 -1.14286,0.45714 -1.82857,0.45714c-0.68571,0.22857 -1.6,0.22857 -2.28571,0.45714c-0.68571,0 -1.14286,0.22857 -1.82857,0.22857c-0.68571,0 -1.6,0.22857 -2.28571,0.22857c-0.68571,0.22857 -1.14286,0.22857 -1.82857,0.22857h-0.45714v-0.68571c-0.22857,-0.45714 -0.22857,-1.14286 -0.22857,-1.6c0,-0.91429 -0.22857,-1.82857 -0.22857,-2.74286c0,-0.68571 -0.22857,-1.14286 -0.22857,-1.82857c-0.22857,-0.91429 -0.22857,-1.82857 -0.45714,-2.74286c0,-0.45714 0,-1.14286 -0.22857,-1.6l-0.68571,-2.74286c-0.22857,-0.68571 -0.22857,-1.14286 -0.45714,-1.6c-0.45714,-1.14286 -0.68571,-2.51429 -1.14286,-3.65714c0,-0.22857 -0.22857,-0.45714 -0.22857,-0.68571c-0.45714,-1.37143 -1.14286,-2.74286 -1.6,-4.11429l-0.68571,-1.37143c-0.22857,-0.91429 -0.68571,-1.82857 -1.14286,-2.74286c-0.22857,-0.68571 -0.45714,-1.14286 -0.68571,-1.6l-0.68571,-1.37143l0.68571,-1.37143c0.22857,-0.68571 0.45714,-1.14286 0.68571,-1.6c0.22857,-0.91429 0.68571,-1.82857 1.14286,-2.74286l0.68571,-1.37143c0.68571,-1.37143 1.14286,-2.74286 1.6,-4.11429c0,-0.22857 0.22857,-0.45714 0.22857,-0.68571c0.45714,-1.14286 0.91429,-2.51429 1.14286,-3.65714c0.22857,-0.68571 0.22857,-1.14286 0.45714,-1.6l0.68571,-2.74286c0,-0.45714 0.22857,-1.14286 0.22857,-1.6c0.22857,-0.91429 0.22857,-1.82857 0.45714,-2.74286c0,-0.68571 0.22857,-1.14286 0.22857,-1.82857zM69.60001,73.82857c-0.22857,-0.91429 -0.22857,-2.05714 -0.22857,-2.97143c0,0.91429 0,1.82857 0.22857,2.97143zM150.5143,71.31429c-0.68571,-0.22857 -1.37143,-0.22857 -2.28571,-0.45714c0.68571,0.22857 1.6,0.22857 2.28571,0.45714zM160.1143,74.51429c0.68571,0.22857 1.37143,0.68571 2.28571,0.91429c-0.91429,-0.22857 -1.6,-0.45714 -2.28571,-0.91429zM70.28572,78.62857c-0.22857,-1.14286 -0.45714,-2.51429 -0.68571,-3.65714c0.22857,1.14286 0.45714,2.28571 0.68571,3.65714zM70.28572,78.62857c0.22857,1.14286 0.68571,2.51429 0.91429,3.65714c-0.45714,-1.14286 -0.68571,-2.51429 -0.91429,-3.65714zM163.77144,76.34286c0.44297,0.29531 0.98103,0.49509 1.49143,0.72297c-0.54674,-0.29966 -1.0192,-0.56549 -1.49143,-0.72297zM166.05715,77.48571c-0.28457,-0.14217 -0.54697,-0.28457 -0.79406,-0.41989c0.27977,0.1248 0.55131,0.25806 0.79406,0.41989zM167.42858,78.17143c0.91429,0.45714 1.6,0.91429 2.28571,1.37143c-0.68571,-0.22857 -1.6,-0.91429 -2.28571,-1.37143zM100.00001,79.08571c-0.45714,0.22857 -0.68571,0.45714 -1.14286,0.68571c0.45714,-0.22857 0.68571,-0.22857 1.14286,-0.68571zM98.85715,80c-0.45714,0.22857 -0.91429,0.68571 -1.37143,0.91429c-0.68571,0.22857 -1.37143,0.91429 -2.05714,1.37143c-0.45714,0.22857 -0.91429,0.68571 -1.14286,0.91429c-0.68571,0.45714 -1.37143,1.14286 -2.05714,1.82857c-0.22857,0.22857 -0.68571,0.45714 -0.91429,0.91429c-0.91429,0.91429 -2.05714,1.82857 -2.97143,2.74286c-0.91429,0.91429 -1.82857,1.82857 -2.74286,2.97143c-0.22857,0.22857 -0.68571,0.68571 -0.91429,1.14286c-0.68571,0.68571 -1.14286,1.37143 -1.6,2.05714c-0.22857,0.45714 -0.68571,0.91429 -0.91429,1.37143l-1.37143,2.05714c-0.22857,0.45714 -0.68571,0.91429 -0.91429,1.37143c-0.21349,0.42674 -0.42674,0.6544 -0.64023,1.05463c-0.09143,-0.14971 -0.18263,-0.27749 -0.27406,-0.36891c0.08183,0.16366 0.16366,0.29783 0.24549,0.424c-0.00571,0.01074 -0.0112,0.02194 -0.01691,0.03314c0.22857,0.45714 0.45714,0.68571 0.68571,1.14286c0.22857,0.45714 0.68571,0.91429 0.91429,1.37143l1.37143,2.05714c0.22857,0.45714 0.68571,0.91429 0.91429,1.14286c0.45714,0.68571 1.14286,1.37143 1.82857,2.05714c0.22857,0.22857 0.45714,0.68571 0.91429,0.91429c1.82857,2.05714 3.65714,3.88571 5.71429,5.71429c0.22857,0.22857 0.68571,0.45714 0.91429,0.91429c0.68571,0.68571 1.37143,1.14286 2.05714,1.82857c0.45714,0.22857 0.91429,0.68571 1.14286,0.91429l2.05714,1.37143c0.45714,0.22857 0.91429,0.68571 1.37143,0.91429c0.45714,0.22857 0.68571,0.45714 1.14286,0.68571c0.45714,-0.22857 0.68571,-0.45714 1.14286,-0.68571c0.45714,-0.22857 0.91429,-0.68571 1.37143,-0.91429l2.05714,-1.37143c0.45714,-0.22857 0.91429,-0.68571 1.14286,-0.91429c0.68571,-0.45714 1.37143,-1.14286 2.05714,-1.82857c0.22857,-0.22857 0.68571,-0.45714 0.91429,-0.91429c2.05714,-1.82857 3.88571,-3.65714 5.71429,-5.71429c0.22857,-0.22857 0.45714,-0.68571 0.91429,-0.91429c0.68571,-0.68571 1.14286,-1.37143 1.82857,-2.05714c0.22857,-0.45714 0.68571,-0.91429 0.91429,-1.14286l1.37143,-2.05714c0.22857,-0.45714 0.68571,-0.91429 0.91429,-1.37143c0.22857,-0.45714 0.45714,-0.68571 0.68571,-1.14286c-0.08183,-0.16366 -0.16366,-0.29783 -0.24549,-0.424c0.00571,-0.01074 0.0112,-0.02194 0.01691,-0.03314c-0.00777,0.00777 -0.01531,0.01554 -0.02309,0.02377c-0.14469,-0.22217 -0.28937,-0.42011 -0.43406,-0.70949c-0.22857,-0.45714 -0.68571,-0.91429 -0.91429,-1.37143l-1.37143,-2.05714c-0.22857,-0.45714 -0.68571,-0.91429 -0.91429,-1.37143c-0.45714,-0.68571 -1.14286,-1.37143 -1.6,-2.05714c-0.22857,-0.45714 -0.68571,-0.68571 -0.91429,-1.14286c-0.08343,-0.08343 -0.16686,-0.16869 -0.25029,-0.25577c-0.81326,-1.01349 -1.62674,-1.84731 -2.44,-2.66286c-0.0176,-0.01783 -0.03497,-0.03543 -0.05257,-0.0528l-0.11429,-0.11429l-0.0832,-0.0832l-0.03109,-0.03109l-0.00069,-0.00069c-0.01714,-0.01714 -0.03451,-0.03451 -0.05211,-0.05166c-0.81554,-0.81349 -1.6496,-1.62697 -2.66309,-2.44046c-0.08686,-0.08343 -0.17211,-0.16663 -0.25554,-0.25006c0.07589,0.07589 0.15177,0.15177 0.22789,0.22766c-0.22903,-0.22811 -0.68526,-0.45669 -0.9136,-0.91337c-0.68571,-0.68571 -1.37143,-1.14286 -2.05714,-1.82857c-0.45714,-0.22857 -0.91429,-0.68571 -1.14286,-0.91429l-2.05714,-1.37143c-0.45714,-0.22857 -0.91429,-0.68571 -1.37143,-0.91429c-0.45714,-0.22857 -0.68571,-0.45714 -1.14286,-0.68571c-0.10994,0.02743 -0.20983,0.05166 -0.30149,0.0736c-0.04914,-0.02194 -0.1008,-0.04617 -0.15566,-0.0736c0.05097,0.02537 0.09897,0.05097 0.14469,0.07634c-0.66263,0.15931 -0.88754,0.20937 -1.28754,0.60937zM170.85715,80.45714c2.28571,1.6 4.34286,3.2 6.4,5.02857c-2.05714,-1.82857 -4.11429,-3.65714 -6.4,-5.02857zM178.17144,86.17143c0.68571,0.68571 1.37143,1.14286 2.05714,1.82857c-0.68571,-0.45714 -1.37143,-1.14286 -2.05714,-1.82857zM72.34287,86.17143c-0.22857,-0.91429 -0.68571,-1.82857 -0.91429,-2.74286c0.22857,0.91429 0.45714,1.82857 0.91429,2.74286zM183.20001,91.2c-0.68571,-0.68571 -1.14286,-1.37143 -1.82857,-1.82857zM75.08572,93.48571c-0.22857,-0.68571 -0.68571,-1.37143 -0.91429,-2.05714c0.45714,0.68571 0.68571,1.37143 0.91429,2.05714zM82.85715,94.62857c0.45714,-0.68571 1.14286,-1.37143 1.6,-2.05714c-0.45714,0.68571 -0.91429,1.37143 -1.6,2.05714zM184.34287,92.57143c0.20549,0.30834 0.45737,0.57051 0.71383,0.82789c0.25714,0.31451 0.54309,0.6576 0.88617,1.00069c-0.25166,-0.37737 -0.57234,-0.68549 -0.88617,-1.00069c-0.25691,-0.31406 -0.48549,-0.59954 -0.71383,-0.82789zM9.94287,100.34285c0.22857,0.45714 0.45714,0.68571 0.68571,1.14286c-0.22857,-0.45714 -0.45714,-0.91429 -0.68571,-1.14286zM15.65715,108.11428c-0.45714,-0.68571 -1.14286,-1.14286 -1.6,-1.82857c0.68571,0.68571 1.14286,1.14286 1.6,1.82857zM86.97144,189.25713c-0.22857,-0.22857 -0.22857,-0.22857 -0.45714,-0.22857c-1.14286,-0.91429 -2.28571,-2.05714 -3.2,-2.97143c-0.22857,-0.22857 -0.68571,-0.68571 -0.91429,-1.14286c-0.68571,-0.68571 -1.37143,-1.37143 -2.05714,-2.28571c-0.45714,-0.45714 -0.68571,-0.91429 -1.14286,-1.37143c-0.68571,-0.68571 -1.14286,-1.37143 -1.82857,-2.05714c-0.45714,-0.45714 -0.68571,-0.91429 -1.14286,-1.37143c-0.45714,-0.68571 -1.14286,-1.37143 -1.6,-2.05714c-0.45714,-0.45714 -0.68571,-0.91429 -0.91429,-1.6c-0.45714,-0.68571 -0.91429,-1.6 -1.37143,-2.28571c-0.22857,-0.45714 -0.68571,-0.91429 -0.91429,-1.6c-0.45714,-0.91429 -0.91429,-1.6 -1.37143,-2.51429l-0.68571,-1.37143c-0.45714,-1.14286 -0.91429,-2.05714 -1.6,-3.2c0,-0.22857 -0.22857,-0.45714 -0.22857,-0.68571c-0.45714,-1.37143 -1.14286,-2.74286 -1.6,-4.11429c-0.22857,-0.45714 -0.22857,-0.68571 -0.45714,-1.14286c-0.22857,-0.91429 -0.68571,-2.05714 -0.91429,-2.97143c-0.22857,-0.45714 -0.22857,-1.14286 -0.45714,-1.6l-0.68571,-2.74286c-0.22857,-0.68571 -0.22857,-1.14286 -0.22857,-1.82857c0,-1.14286 -0.22857,-2.05714 -0.22857,-2.97143c0,-0.68571 -0.22857,-1.14286 -0.22857,-1.82857c0,-0.91429 -0.22857,-1.82857 -0.22857,-2.74286c0,-0.68571 0,-1.14286 -0.22857,-1.82857v-0.68571h-0.68571c-0.68571,0 -1.14286,0 -1.82857,-0.22857c-0.91429,0 -1.82857,-0.22857 -2.74286,-0.22857c-0.68571,0 -1.14286,-0.22857 -1.82857,-0.22857c-0.91429,-0.22857 -1.82857,-0.22857 -2.74286,-0.45714c-0.68571,0 -1.14286,-0.22857 -1.82857,-0.45714l-2.74286,-0.68571c-0.45714,-0.22857 -1.14286,-0.22857 -1.6,-0.45714c-0.91429,-0.22857 -2.05714,-0.68571 -2.97143,-0.91429c-0.45714,-0.22857 -0.91429,-0.22857 -1.14286,-0.45714c-1.37143,-0.45714 -2.74286,-0.91429 -4.11429,-1.6c-0.22857,0 -0.45714,-0.22857 -0.91429,-0.45714c-1.14286,-0.45714 -2.05714,-0.91429 -3.2,-1.37143l-1.37143,-0.68571c-0.91429,-0.45714 -1.6,-0.91429 -2.51429,-1.37143c-0.45714,-0.22857 -0.91429,-0.68571 -1.6,-0.91429c-0.68571,-0.45714 -1.6,-0.91429 -2.28571,-1.37143c-0.45714,-0.22857 -0.91429,-0.68571 -1.6,-0.91429c-0.68571,-0.45714 -1.37143,-0.91429 -2.05714,-1.6c-0.45714,-0.45714 -0.91429,-0.68571 -1.37143,-1.14286c-0.68571,-0.45714 -1.37143,-1.14286 -2.05714,-1.82857c-0.45714,-0.45714 -0.91429,-0.68571 -1.37143,-1.14286c-0.68571,-0.68571 -1.6,-1.37143 -2.28571,-2.05714l-0.91429,-0.91429c-1.14286,-1.14286 -2.05714,-2.05714 -2.97143,-3.2c-0.22857,-0.22857 -0.22857,-0.22857 -0.22857,-0.45714c-0.91429,-0.91429 -1.6,-2.05714 -2.51429,-2.97143c-0.22857,-0.45714 -0.68571,-0.91429 -0.91429,-1.14286c-0.45714,-0.68571 -0.91429,-1.14286 -1.37143,-1.82857c-4.34286,8.91429 -6.4,18.28571 -6.4,27.65714c0,36.11429 29.25714,65.37143 65.37143,65.37143c9.6,0 18.97143,-2.05714 27.65714,-6.17143c-0.68571,-0.45714 -1.14286,-0.91429 -1.82857,-1.37143c-0.45714,-0.22857 -0.91429,-0.68571 -1.14286,-0.91429c-1.14286,-0.68571 -2.05714,-1.37143 -3.2,-2.28571zM188.9143,113.37142c0,0.22857 -0.22857,0.22857 -0.22857,0.45714c-0.91429,1.14286 -2.05714,2.28571 -2.97143,3.2l-0.91429,0.91429c-0.68571,0.68571 -1.37143,1.37143 -2.28571,2.05714c-0.45714,0.45714 -0.91429,0.68571 -1.37143,1.14286c-0.68571,0.68571 -1.37143,1.14286 -2.05714,1.82857c-0.45714,0.45714 -0.91429,0.68571 -1.37143,1.14286c-0.68571,0.45714 -1.37143,1.14286 -2.05714,1.6c-0.45714,0.45714 -0.91429,0.68571 -1.6,0.91429c-0.68571,0.45714 -1.6,0.91429 -2.28571,1.37143c-0.45714,0.22857 -0.91429,0.68571 -1.6,0.91429c-0.91429,0.45714 -1.6,0.91429 -2.51429,1.37143l-1.37143,0.68571c-1.14286,0.45714 -2.05714,0.91429 -3.2,1.37143c-0.22857,0.22857 -0.45714,0.22857 -0.91429,0.45714c-1.37143,0.45714 -2.74286,1.14286 -4.11429,1.6c-0.45714,0.22857 -0.91429,0.22857 -1.14286,0.45714c-0.91429,0.22857 -2.05714,0.68571 -2.97143,0.91429c-0.45714,0.22857 -1.14286,0.22857 -1.6,0.45714l-2.74286,0.68571c-0.60937,-0.15246 -1.01577,-0.10149 -1.42217,-0.05074c-0.2032,0.02537 -0.4064,0.05074 -0.63497,0.05074c-0.91429,0.22857 -1.82857,0.22857 -2.74286,0.45714c-0.68571,0 -1.14286,0.22857 -1.82857,0.22857c-0.91429,0 -1.82857,0.22857 -2.74286,0.22857c-0.68571,0 -1.14286,0 -1.82857,0.22857h-0.68571v0.68571c0,0.68571 0,1.14286 -0.22857,1.82857c0,0.91429 -0.22857,1.82857 -0.22857,2.74286c0,0.68571 -0.22857,1.14286 -0.22857,1.82857c-0.22857,0.91429 -0.22857,1.82857 -0.45714,2.74286c0,0.68571 -0.22857,1.14286 -0.22857,1.82857l-0.68571,2.74286c-0.22857,0.45714 -0.22857,1.14286 -0.45714,1.6c-0.22857,1.14286 -0.68571,2.05714 -0.91429,2.97143c-0.22857,0.45714 -0.22857,0.68571 -0.45714,1.14286c-0.45714,1.37143 -0.91429,2.74286 -1.6,4.11429c0,0.22857 -0.22857,0.45714 -0.22857,0.68571c-0.45714,1.14286 -0.91429,2.28571 -1.6,3.2l-0.68571,1.37143c-0.45714,0.91429 -0.91429,1.6 -1.37143,2.51429c-0.22857,0.45714 -0.68571,0.91429 -0.91429,1.6c-0.45714,0.68571 -0.91429,1.6 -1.37143,2.28571c-0.22857,0.45714 -0.68571,0.91429 -0.91429,1.6c-0.45714,0.68571 -0.91429,1.37143 -1.6,2.05714c-0.45714,0.45714 -0.68571,0.91429 -1.14286,1.37143c-0.45714,0.68571 -1.14286,1.37143 -1.82857,2.05714c-0.45714,0.45714 -0.68571,0.91429 -1.14286,1.37143c-0.68571,0.68571 -1.37143,1.37143 -2.05714,2.28571c-0.22857,0.45714 -0.68571,0.68571 -0.91429,1.14286c-1.14286,1.14286 -2.05714,2.05714 -3.2,2.97143c-0.22857,0.22857 -0.22857,0.22857 -0.45714,0.22857c-0.91429,0.91429 -2.05714,1.6 -2.97143,2.51429c-0.45714,0.22857 -0.91429,0.68571 -1.14286,0.91429c-0.68571,0.45714 -1.14286,0.91429 -1.82857,1.37143c8.68571,4.11429 18.05714,6.17143 27.65714,6.17143c36.11429,0 65.37143,-29.25714 65.37143,-65.37143c0,-9.6 -2.05714,-18.97143 -6.17143,-27.65714c-0.45714,0.68571 -0.91429,1.14286 -1.37143,1.82857c-0.22857,0.45714 -0.68571,0.91429 -0.91429,1.14286c-0.91429,1.37143 -1.6,2.28571 -2.51429,3.42857zM88.80001,121.82856c1.14286,0.91429 2.28571,1.82857 3.2,2.74286c0.45714,0.22857 0.68571,0.45714 0.91429,0.68571c-0.68571,0.22857 -1.37143,0.68571 -2.05714,0.91429c-0.22857,0 -0.45714,0.22857 -0.68571,0.22857c-1.37143,0.45714 -2.51429,0.91429 -3.65714,1.37143c-0.22857,0 -0.68571,0.22857 -0.91429,0.22857c-0.91429,0.45714 -1.82857,0.68571 -2.74286,0.91429c-0.45714,0 -0.68571,0.22857 -1.14286,0.22857c-0.25166,0.10057 -0.51429,0.19017 -0.78309,0.27109c0.39543,-0.10354 0.8064,-0.19886 1.24023,-0.27109c-1.14286,0.22857 -2.51429,0.68571 -3.65714,0.91429c0.59269,-0.11863 1.18537,-0.29851 1.80983,-0.47634c-0.7712,0.19451 -1.56251,0.33554 -2.26697,0.47634c-1.14286,0.22857 -2.51429,0.45714 -3.65714,0.68571c-0.45714,0.22857 -0.68571,0.22857 -1.14286,0.22857c-0.91429,0 -2.05714,0.22857 -2.97143,0.22857h-1.37143v-1.37143c0,-0.91429 0,-2.05714 0.22857,-2.97143c0.22857,-0.45714 0.22857,-0.68571 0.22857,-1.14286c0.22857,-1.14286 0.45714,-2.51429 0.68571,-3.65714c0.22857,-1.14286 0.68571,-2.51429 0.91429,-3.65714c0,-0.45714 0.22857,-0.68571 0.22857,-1.14286c0.22857,-0.91429 0.68571,-1.82857 0.91429,-2.74286c0,-0.22857 0.22857,-0.68571 0.22857,-0.91429c0.45714,-1.37143 0.91429,-2.51429 1.37143,-3.65714c0,-0.22857 0.22857,-0.45714 0.22857,-0.68571c0.22857,-0.68571 0.68571,-1.37143 0.91429,-2.05714l0.16823,0.16823c0.02149,-0.056 0.0416,-0.11223 0.06034,-0.16823c-0.01897,0.05714 -0.03817,0.11429 -0.05714,0.17143l0.51429,0.51429l2.74286,3.42857c0.45714,0.45714 0.68571,0.91429 1.14286,1.37143c1.37143,1.37143 2.51429,2.74286 3.88571,4.11429c1.14286,1.37143 2.74286,2.74286 4.11429,3.88571c0.45714,0.45714 0.91429,0.68571 1.37143,1.14286zM124.9143,107.19999c0.22857,0.68571 0.68571,1.37143 0.91429,2.05714c-0.45714,-0.68571 -0.68571,-1.37143 -0.91429,-2.05714zM120.34287,112.91428c0.45714,-0.45714 0.68571,-0.91429 1.14286,-1.37143c0.91429,-1.14286 1.82857,-2.28571 2.51429,-3.42857l0.68571,-0.68571c0.22857,0.68571 0.68571,1.37143 0.91429,2.05714c0,0.22857 0.22857,0.45714 0.22857,0.68571c0.45714,1.37143 0.91429,2.51429 1.37143,3.65714c0,0.22857 0.22857,0.68571 0.22857,0.91429c0.45714,0.91429 0.68571,1.82857 0.91429,2.74286c0,0.45714 0.22857,0.68571 0.22857,1.14286c0.45714,1.14286 0.68571,2.51429 0.91429,3.65714c0.22857,1.14286 0.45714,2.51429 0.68571,3.65714c0.22857,0.45714 0.22857,0.68571 0.22857,1.14286c0,0.91429 0.22857,2.05714 0.22857,2.97143v1.37143h-1.37143c-0.91429,0 -2.05714,0 -2.97143,-0.22857c-0.45714,-0.22857 -0.68571,-0.22857 -1.14286,-0.22857c-1.14286,-0.22857 -2.51429,-0.45714 -3.65714,-0.68571c-1.14286,-0.22857 -2.51429,-0.68571 -3.65714,-0.91429c-0.45714,0 -0.68571,-0.22857 -1.14286,-0.22857c-0.91429,-0.22857 -1.82857,-0.68571 -2.74286,-0.91429c-0.22857,0 -0.68571,-0.22857 -0.91429,-0.22857c-1.37143,-0.45714 -2.51429,-0.91429 -3.65714,-1.37143c-0.22857,0 -0.45714,-0.22857 -0.68571,-0.22857c-0.68571,-0.22857 -1.37143,-0.68571 -2.05714,-0.91429c0.12777,-0.06377 0.23749,-0.12777 0.3344,-0.19154c-0.0352,-0.0128 -0.07063,-0.02537 -0.10583,-0.03703c0.03589,0.01189 0.07177,0.024 0.10766,0.03589c0.24937,-0.16434 0.41371,-0.32869 0.57806,-0.49303l3.42857,-2.74286c0.45714,-0.45714 0.91429,-0.68571 1.37143,-1.14286c1.37143,-1.37143 2.74286,-2.51429 4.11429,-3.88571c1.37143,-1.14286 2.74286,-2.74286 3.88571,-4.11429zM85.37144,109.25713c1.82857,2.05714 3.65714,3.88571 5.71429,5.71429c-2.05714,-1.82857 -3.88571,-3.88571 -5.71429,-5.71429zM21.82858,114.2857c-0.68571,-0.68571 -1.37143,-1.37143 -2.05714,-1.82857c0.68571,0.68571 1.37143,1.14286 2.05714,1.82857zM127.65715,114.2857c0.15931,0.63726 0.42949,1.27429 0.65623,1.91154c0.09303,0.30674 0.17554,0.584 0.25806,0.83131c-0.06926,-0.27703 -0.15954,-0.55429 -0.25806,-0.83131c-0.16526,-0.54377 -0.36389,-1.18103 -0.65623,-1.91154zM129.7143,121.82856c-0.22857,-1.14286 -0.45714,-2.28571 -0.91429,-3.65714c0.22857,1.14286 0.68571,2.51429 0.91429,3.65714zM32.57144,122.2857c-0.91429,-0.45714 -1.6,-0.91429 -2.28571,-1.37143c0.68571,0.45714 1.6,0.91429 2.28571,1.37143zM36.22858,124.34285c-0.68571,-0.45714 -1.6,-0.68571 -2.28571,-1.14286c0.91429,0.22857 1.6,0.68571 2.28571,1.14286zM93.14287,125.25713c-0.68571,0.22857 -1.37143,0.68571 -2.05714,0.91429c0.68571,-0.45714 1.37143,-0.68571 2.05714,-0.91429zM43.77144,127.54285c-0.68571,-0.22857 -1.37143,-0.45714 -2.28571,-0.91429c0.91429,0.22857 1.6,0.68571 2.28571,0.91429zM47.65715,128.6857c-0.68571,-0.22857 -1.6,-0.45714 -2.28571,-0.68571c0.91429,0.22857 1.6,0.45714 2.28571,0.68571zM49.48572,129.37142c0.56709,0 1.1344,0.15634 1.83086,0.33989c-0.60229,-0.12137 -1.28823,-0.15909 -1.83086,-0.33989zM51.31658,129.7113c0.1456,0.03817 0.29691,0.07771 0.45486,0.11726c-0.14309,-0.04777 -0.296,-0.08549 -0.45486,-0.11726zM124.00001,137.37142c-0.91429,-0.22857 -1.82857,-0.22857 -2.74286,-0.45714c-0.45714,0 -1.14286,-0.22857 -1.6,-0.22857l-2.74286,-0.68571c-0.45714,-0.22857 -0.91429,-0.22857 -1.37143,-0.45714c-1.14286,-0.22857 -2.51429,-0.68571 -3.65714,-1.14286c-0.22857,0 -0.45714,0 -0.45714,-0.22857c-1.37143,-0.45714 -2.74286,-0.91429 -4.11429,-1.6l-1.37143,-0.68571c-0.91429,-0.45714 -1.82857,-0.68571 -2.74286,-1.14286c-0.45714,-0.22857 -1.14286,-0.45714 -1.6,-0.68571l-1.37143,-0.68571l-1.37143,0.68571c-0.45714,0.22857 -1.14286,0.45714 -1.6,0.68571c-0.91429,0.45714 -1.82857,0.91429 -2.74286,1.14286l-1.37143,0.68571c-1.37143,0.45714 -2.74286,1.14286 -4.11429,1.6c-0.22857,0 -0.45714,0 -0.45714,0.22857c-1.14286,0.45714 -2.51429,0.68571 -3.65714,1.14286c-0.45714,0.22857 -0.91429,0.22857 -1.37143,0.45714l-2.74286,0.68571c-0.45714,0.22857 -1.14286,0.22857 -1.6,0.22857c-0.91429,0.22857 -1.82857,0.22857 -2.74286,0.45714c-0.68571,0 -1.14286,0.22857 -1.82857,0.22857c-0.91429,0 -1.82857,0.22857 -2.74286,0.22857c-0.45714,0 -1.14286,0 -1.6,0.22857h-0.68571v0.45714c0,0.68571 0,1.14286 0.22857,1.82857c0,0.68571 0.22857,1.6 0.22857,2.28571c0,0.68571 0.22857,1.14286 0.22857,1.82857c0.22857,0.68571 0.22857,1.6 0.45714,2.28571c0,0.68571 0.22857,1.14286 0.45714,1.82857c0.22857,0.68571 0.22857,1.6 0.45714,2.28571c0.22857,0.68571 0.22857,1.14286 0.45714,1.82857c0.22857,0.68571 0.45714,1.37143 0.68571,2.28571c0.22857,0.45714 0.45714,1.14286 0.68571,1.6c0.22857,0.68571 0.45714,1.37143 0.91429,2.28571c0.22857,0.45714 0.45714,1.14286 0.68571,1.6c0.22857,0.68571 0.68571,1.37143 0.91429,2.05714c0.22857,0.45714 0.45714,1.14286 0.68571,1.6c0.45714,0.68571 0.68571,1.37143 1.14286,2.28571l0.68571,1.37143c0.45714,0.68571 0.91429,1.6 1.37143,2.28571c0.22857,0.45714 0.45714,0.68571 0.68571,1.14286c0.68571,1.14286 1.6,2.28571 2.28571,3.2c0.91429,1.14286 1.6,2.05714 2.51429,3.2l0.91429,0.91429c0.68571,0.68571 1.14286,1.37143 1.82857,2.05714l1.14286,1.14286c0.68571,0.68571 1.14286,1.14286 1.82857,1.6c0.45714,0.45714 0.91429,0.68571 1.37143,1.14286c0.68571,0.45714 1.14286,1.14286 1.82857,1.6c0.45714,0.45714 0.91429,0.68571 1.37143,1.14286c0.68571,0.45714 1.37143,0.91429 1.82857,1.37143c0.45714,0.45714 0.91429,0.68571 1.6,0.91429c0.41737,0.20869 0.64434,0.41737 1.02857,0.62606c-0.03657,0.01989 -0.07451,0.03977 -0.11429,0.05966c0.04137,-0.0208 0.08091,-0.03954 0.11909,-0.05691c0.03497,0.01897 0.07154,0.03794 0.10949,0.05691c0.45714,-0.22857 0.68571,-0.45714 1.14286,-0.68571c0.45714,-0.22857 1.14286,-0.68571 1.6,-0.91429c0.68571,-0.45714 1.37143,-0.91429 1.82857,-1.37143c0.45714,-0.45714 0.91429,-0.68571 1.37143,-1.14286c0.01006,-0.00686 0.02011,-0.01349 0.03017,-0.02034c-0.08594,0.07977 -0.17234,0.16251 -0.25874,0.24891c0.22057,-0.14697 0.4176,-0.31771 0.60617,-0.49691c0.41051,-0.31154 0.75863,-0.64297 1.18126,-1.0624c0.01349,-0.01326 0.02697,-0.02651 0.04023,-0.03977l0.00091,-0.00091l0.22857,-0.22857c0.45714,-0.45714 0.91429,-0.68571 1.37143,-1.14286c0.68571,-0.45714 1.14286,-1.14286 1.82857,-1.6l1.14286,-1.14286c0.68571,-0.68571 1.37143,-1.37143 1.82857,-2.05714l0.91429,-0.91429c0.91429,-1.14286 1.82857,-2.05714 2.51429,-3.2c0.2192,-0.27406 0.42537,-0.54811 0.62149,-0.8192c0.55954,-0.73691 1.17097,-1.55886 1.66423,-2.3808c0.22857,-0.45714 0.45714,-0.68571 0.68571,-1.14286c0.45714,-0.68571 0.91429,-1.6 1.37143,-2.28571l0.68571,-1.37143c0.45714,-0.68571 0.91429,-1.37143 1.14286,-2.28571c0.22857,-0.45714 0.45714,-0.91429 0.68571,-1.6c0.22857,-0.68571 0.68571,-1.37143 0.91429,-2.05714c0.22857,-0.45714 0.45714,-1.14286 0.68571,-1.6c0.22857,-0.68571 0.45714,-1.37143 0.91429,-2.28571c0.22857,-0.45714 0.45714,-1.14286 0.68571,-1.6c0.22857,-0.68571 0.45714,-1.37143 0.68571,-2.28571c0.22857,-0.68571 0.22857,-1.14286 0.45714,-1.82857c0.22857,-0.68571 0.45714,-1.6 0.45714,-2.28571c0.22857,-0.68571 0.22857,-1.14286 0.45714,-1.82857c0.22857,-0.68571 0.45714,-1.37143 0.45714,-2.28571c0,-0.68571 0.22857,-1.14286 0.22857,-1.82857c0.22857,-0.68571 0.22857,-1.37143 0.22857,-2.28571c0,-0.68571 0,-1.14286 0.22857,-1.82857v-0.45714h-0.68571c-0.45714,0 -1.14286,0 -1.6,-0.22857c-0.91429,0 -1.82857,-0.22857 -2.74286,-0.22857c-0.68571,0 -1.14286,-0.22857 -1.82857,-0.22857zM55.88572,130.51428c-0.68571,-0.22857 -1.6,-0.22857 -2.28571,-0.45714c0.68571,0.22857 1.37143,0.45714 2.28571,0.45714zM78.28572,130.05713c-1.14286,0.22857 -2.51429,0.45714 -3.65714,0.68571c1.14286,-0.22857 2.28571,-0.45714 3.65714,-0.68571zM60.00001,130.97142c-0.68571,0 -1.6,-0.22857 -2.28571,-0.22857c0.68571,0.22857 1.37143,0.22857 2.28571,0.22857zM69.60001,142.62856c0,-0.68571 -0.22857,-1.6 -0.22857,-2.28571c0,0.91429 0,1.6 0.22857,2.28571zM69.60001,144.45713c0.04777,0.14309 0.08549,0.296 0.11726,0.45486c-0.03817,-0.1456 -0.07771,-0.29691 -0.11726,-0.45486zM69.71727,144.91199c0.18354,0.69646 0.33989,1.26354 0.33989,1.83086c-0.1808,-0.54263 -0.21874,-1.22834 -0.33989,-1.83086zM70.97144,150.85713c-0.22857,-0.68571 -0.45714,-1.6 -0.45714,-2.28571c0.22857,0.68571 0.45714,1.6 0.45714,2.28571zM129.48572,148.57142c-0.22857,0.68571 -0.22857,1.6 -0.45714,2.28571c0,-0.68571 0.22857,-1.6 0.45714,-2.28571zM73.7143,158.62856c-0.22857,-0.68571 -0.45714,-1.37143 -0.91429,-2.28571c0.22857,0.91429 0.45714,1.6 0.91429,2.28571zM125.82858,160.22856c-0.13371,0.40114 -0.3456,0.80229 -0.54423,1.20343c0.14309,-0.34354 0.31497,-0.74469 0.54423,-1.20343zM125.28435,161.43199c-0.14217,0.34126 -0.25623,0.62583 -0.37006,0.85371c0.09486,-0.28457 0.22903,-0.56914 0.37006,-0.85371zM75.3143,162.51428c-0.22857,-0.68571 -0.68571,-1.37143 -0.91429,-2.05714c0.22857,0.68571 0.45714,1.37143 0.91429,2.05714zM77.14287,166.17142c-0.45714,-0.68571 -0.91429,-1.37143 -1.14286,-2.28571c0.45714,0.91429 0.68571,1.6 1.14286,2.28571zM79.42858,170.05713c-0.45714,-0.68571 -0.91429,-1.6 -1.37143,-2.28571c0.45714,0.68571 0.91429,1.37143 1.37143,2.28571zM82.40001,174.39999c-0.91429,-1.14286 -1.6,-2.28571 -2.28571,-3.2c0.68571,0.91429 1.6,2.05714 2.28571,3.2zM90.85715,183.54285c-0.68571,-0.45714 -1.14286,-1.14286 -1.82857,-1.6c0.68571,0.45714 1.14286,0.91429 1.82857,1.6zM92.22858,184.45713c0.45714,0.68571 1.14286,1.14286 1.82857,1.6c-0.68571,-0.45714 -1.14286,-0.91429 -1.82857,-1.6zM100.00001,190.39999c-0.45714,-0.22857 -0.68571,-0.45714 -1.14286,-0.68571c0.45714,0.22857 0.68571,0.22857 1.14286,0.68571z" fill-rule="evenodd"></path></svg>